<svg xmlns="http://www.w3.org/2000/svg" viewBox="0 0 512 512">
  <rect width="512" height="512" rx="50" fill="#007bff"/>
  <path d="M376 144H264c-8.8 0-16 7.2-16 16v128c0 8.8 7.2 16 16 16h112c8.8 0 16-7.2 16-16V160c0-8.8-7.2-16-16-16zm-16 128h-80v-96h80v96zM180 144H136c-6.6 0-12 5.4-12 12v112c0 6.6 5.4 12 12 12h44c6.6 0 12-5.4 12-12V156c0-6.6-5.4-12-12-12zM136 352h20v-20h-20c-6.6 0-12 5.4-12 12v76c0 6.6 5.4 12 12 12h44c6.6 0 12-5.4 12-12v-76c0-6.6-5.4-12-12-12h-44v20h36v60h-36v-60zm116-96h84v-20h-84c-6.6 0-12 5.4-12 12v76c0 6.6 5.4 12 12 12h84v-20h-76v-60h76z" fill="white"/>
  <path d="M256 428c-6.6 0-12-5.4-12-12v-40c0-6.6 5.4-12 12-12h112c6.6 0 12 5.4 12 12v40c0 6.6-5.4 12-12 12H256z" fill="white"/>
</svg> 